<!DOCTYPE svg PUBLIC "-//W3C//DTD SVG 1.1//EN" "http://www.w3.org/Graphics/SVG/1.1/DTD/svg11.dtd">
<!-- Uploaded to: SVG Repo, www.svgrepo.com, Transformed by: SVG Repo Mixer Tools -->
<svg fill="#0bd1d1" height="800px" width="800px" version="1.1" id="Layer_1" xmlns="http://www.w3.org/2000/svg" xmlns:xlink="http://www.w3.org/1999/xlink" viewBox="0 0 512 512" xml:space="preserve">
<g id="SVGRepo_bgCarrier" stroke-width="0"/>
<g id="SVGRepo_tracerCarrier" stroke-linecap="round" stroke-linejoin="round"/>
<g id="SVGRepo_iconCarrier"> <g> <g> <path d="M231.721,306.812l37.404-37.405l-1.524-0.451c-11.864-3.512-21.043-12.691-24.556-24.556l-0.082-0.279l-36.966,36.967 l-8.121-8.121c-4.737-4.734-12.412-4.734-17.15,0L12.057,441.637c-16.075,16.075-16.075,42.231,0,58.307 c0,0.001,0,0.001,0.001,0.001C20.095,507.983,30.654,512,41.211,512c10.558,0,21.117-4.017,29.154-12.055l168.67-168.67 c4.735-4.735,4.735-12.414,0-17.15L231.721,306.812z"/> </g> </g> <g> <g> <path d="M508.446,115.387L396.614,3.553C394.323,1.262,391.278,0,388.039,0c-3.239,0-6.284,1.262-8.573,3.552L243.804,139.213 c-3.147,3.146-4.317,7.751-3.053,12.017l25.549,86.286c1.17,3.954,4.23,7.014,8.183,8.184l86.287,25.549 c4.262,1.262,8.87,0.095,12.017-3.053l135.66-135.661c2.291-2.291,3.553-5.334,3.553-8.573 C511.999,120.722,510.737,117.676,508.446,115.387z M291.408,163.214c-3.104,0-6.206-1.185-8.575-3.552 c-4.735-4.735-4.735-12.414,0-17.15l90.89-90.89c4.737-4.734,12.413-4.734,17.15,0c4.735,4.735,4.735,12.414,0,17.15l-90.89,90.89 C297.615,162.029,294.513,163.214,291.408,163.214z M326.564,198.37c-3.104,0-6.206-1.185-8.575-3.552 c-4.735-4.735-4.735-12.414,0-17.15l90.89-90.89c4.737-4.734,12.412-4.734,17.15,0c4.735,4.735,4.735,12.414,0,17.15l-90.89,90.89 C332.77,197.186,329.668,198.37,326.564,198.37z M461.186,139.084l-90.892,90.89c-2.368,2.367-5.473,3.552-8.575,3.552 c-3.104,0-6.206-1.185-8.575-3.552c-4.735-4.735-4.735-12.414,0-17.15l90.892-90.89c4.738-4.734,12.414-4.732,17.15,0 C465.922,126.669,465.922,134.348,461.186,139.084z"/> </g> </g> </g>
</svg>