<?xml version="1.0" encoding="iso-8859-1"?>
<!-- Uploaded to: SVG Repo, www.svgrepo.com, Generator: SVG Repo Mixer Tools -->
<svg height="800px" width="800px" version="1.1" id="Layer_1" xmlns="http://www.w3.org/2000/svg" xmlns:xlink="http://www.w3.org/1999/xlink" 
	 viewBox="0 0 512.001 512.001" xml:space="preserve">
<path style="fill:#D6E0E0;" d="M191.957,328.372c-2.131,0-4.261-0.813-5.888-2.438c-3.253-3.253-3.253-8.524,0-11.776
	l125.683-125.684c3.252-3.251,8.524-3.251,11.776,0c3.252,3.253,3.252,8.524,0,11.776L197.846,325.932
	C196.22,327.558,194.089,328.372,191.957,328.372z"/>
<path style="fill:#774633;" d="M131.847,427.575l61.663-61.664l-47.421-47.422L7.366,457.213c-9.821,9.821-9.821,25.745,0,35.566
	l11.855,11.856c9.821,9.82,25.745,9.821,35.566,0l58.51-58.509"/>
<path style="fill:#636D77;" d="M168.414,296.164c4.942-4.944,12.956-4.944,17.9-0.001l29.521,29.526
	c4.944,4.941,4.944,12.955,0,17.898l-22.326,22.325l-47.421-47.422L168.414,296.164z"/>
<path style="opacity:0.15;fill:#020202;enable-background:new    ;" d="M19.012,470.561l141.998-141.999l22.853-22.852
	c2.297-2.298,5.244-3.542,8.249-3.753l-5.795-5.797c-4.944-4.943-12.959-4.943-17.9,0.001l-22.326,22.325L7.366,457.213
	c-9.821,9.821-9.821,25.745,0,35.566l6.267,6.269C9.53,489.63,11.309,478.264,19.012,470.561z"/>
<path style="fill:#636D77;" d="M295.868,172.588v0.002c-12.026,12.023-12.026,31.518,0,43.543c12.024,12.024,31.518,12.024,43.542,0
	v-0.001L295.868,172.588z"/>
<path style="fill:#D6E0E0;" d="M507.201,104.053L407.949,4.801c-6.399-6.402-16.781-6.402-23.183,0L358.25,31.318l-63.717,63.721
	l-26.52,26.517c-6.399,6.4-6.399,16.78,0,23.183l99.253,99.249c6.402,6.403,16.781,6.403,23.183,0l26.516-26.516l63.722-63.72
	l26.516-26.517C513.6,120.833,513.6,110.452,507.201,104.053z"/>
<path style="opacity:0.15;fill:#020202;enable-background:new    ;" d="M307.832,184.553l-11.963-11.964v0.002
	c-12.026,12.023-12.026,31.518,0,43.543c2.152,2.152,4.543,3.909,7.087,5.291C296.289,209.718,297.911,194.579,307.832,184.553z"/>
<g style="opacity:0.15;">
	<path style="fill:#020202;" d="M407.949,4.801c-6.399-6.402-16.781-6.402-23.183,0L358.25,31.318l-63.717,63.721l-26.52,26.517
		c-6.399,6.4-6.399,16.78,0,23.183l10.994,10.992c0.05-0.063,0.095-0.129,0.145-0.193c-5.431-6.44-5.125-16.076,0.941-22.14
		l26.518-26.517l63.72-63.721l26.518-26.517c5.865-5.866,15.067-6.339,21.491-1.453L407.949,4.801z"/>
</g>
<g>
	<path style="fill:#EBEDED;" d="M315.934,143.178c-2.132,0-4.263-0.813-5.889-2.438c-3.252-3.253-3.252-8.524,0-11.777
		l85.003-85.004c3.252-3.251,8.523-3.251,11.775,0c3.253,3.253,3.253,8.524,0,11.776l-85.003,85.004
		C320.195,142.364,318.065,143.178,315.934,143.178z"/>
	<path style="fill:#EBEDED;" d="M346.542,173.786c-2.131,0-4.261-0.813-5.888-2.438c-3.253-3.253-3.253-8.524,0-11.776
		l85.005-85.004c3.252-3.251,8.524-3.251,11.774,0c3.253,3.253,3.253,8.524,0,11.776l-85.004,85.004
		C350.806,172.974,348.674,173.786,346.542,173.786z"/>
	<path style="fill:#EBEDED;" d="M377.151,204.395c-2.132,0-4.263-0.813-5.889-2.438c-3.252-3.253-3.252-8.524,0-11.776
		l85.004-85.003c3.252-3.251,8.525-3.251,11.775,0c3.253,3.253,3.253,8.524,0,11.776l-85.004,85.003
		C381.412,203.582,379.281,204.395,377.151,204.395z"/>
</g>
<path style="fill:#5B3327;" d="M35.432,484.331c-2.131,0-4.261-0.813-5.888-2.438c-3.252-3.253-3.252-8.524,0-11.776
	l113.962-113.963c3.252-3.251,8.524-3.251,11.775,0c3.252,3.253,3.252,8.524,0,11.776L41.321,481.893
	C39.695,483.519,37.564,484.331,35.432,484.331z"/>
</svg>